<?xml version="1.0" standalone="no"?>
<!DOCTYPE svg PUBLIC "-//W3C//DTD SVG 20010904//EN"
 "http://www.w3.org/TR/2001/REC-SVG-20010904/DTD/svg10.dtd">
<svg version="1.0" xmlns="http://www.w3.org/2000/svg"
 width="500.000000pt" height="500.000000pt" viewBox="0 0 500.000000 500.000000"
 preserveAspectRatio="xMidYMid meet">

<g transform="translate(0.000000,500.000000) scale(0.100000,-0.100000)"
fill="#000000" stroke="none">
<path d="M3310 2865 c7 -8 17 -15 22 -15 6 0 5 7 -2 15 -7 8 -17 15 -22 15 -6
0 -5 -7 2 -15z"/>
<path d="M2030 2786 c0 -2 8 -10 18 -17 15 -13 16 -12 3 4 -13 16 -21 21 -21
13z"/>
<path d="M2591 2704 c0 -11 3 -14 6 -6 3 7 2 16 -1 19 -3 4 -6 -2 -5 -13z"/>
<path d="M3342 2663 c-7 -12 -12 -32 -11 -45 1 -20 3 -18 15 11 17 38 13 67
-4 34z"/>
<path d="M2963 2577 c-14 -22 -11 -36 7 -34 10 1 17 4 14 8 -2 4 0 9 5 11 5 1
3 9 -4 15 -11 10 -16 10 -22 0z"/>
<path d="M2111 2564 c6 -8 18 -14 26 -14 20 0 8 16 -17 23 -17 4 -19 3 -9 -9z"/>
<path d="M1750 2551 c0 -5 5 -13 10 -16 6 -3 10 -2 10 4 0 5 -4 13 -10 16 -5
3 -10 2 -10 -4z"/>
<path d="M2929 2493 c-13 -16 -12 -17 4 -4 16 13 21 21 13 21 -2 0 -10 -8 -17
-17z"/>
<path d="M2170 2385 c13 -14 26 -25 28 -25 3 0 -5 11 -18 25 -13 14 -26 25
-28 25 -3 0 5 -11 18 -25z"/>
<path d="M2250 2346 c0 -2 8 -10 18 -17 15 -13 16 -12 3 4 -13 16 -21 21 -21
13z"/>
<path d="M2210 2331 c0 -5 7 -12 16 -15 14 -5 15 -4 4 9 -14 17 -20 19 -20 6z"/>
<path d="M2090 2326 c0 -2 8 -10 18 -17 15 -13 16 -12 3 4 -13 16 -21 21 -21
13z"/>
<path d="M2320 2310 c0 -5 5 -10 11 -10 5 0 7 5 4 10 -3 6 -8 10 -11 10 -2 0
-4 -4 -4 -10z"/>
<path d="M2759 2293 c-13 -16 -12 -17 4 -4 16 13 21 21 13 21 -2 0 -10 -8 -17
-17z"/>
<path d="M2290 2292 c0 -6 16 -27 35 -47 41 -41 62 -85 45 -95 -7 -4 -11 -10
-11 -14 1 -3 -2 -6 -6 -6 -11 0 -11 24 -1 31 5 3 -9 24 -30 47 -21 23 -37 43
-35 45 2 2 -6 12 -17 22 -35 32 -34 8 1 -27 32 -32 48 -68 30 -68 -5 0 -19 16
-32 34 -13 19 -35 40 -49 46 -24 12 -24 12 -6 -9 26 -29 9 -26 -39 6 l-40 26
25 -29 c34 -40 80 -84 87 -84 3 0 12 -8 20 -17 8 -10 11 -12 8 -4 -5 9 1 8 19
-4 30 -20 34 -27 9 -18 -14 5 -12 0 6 -20 27 -29 22 -48 -6 -26 -10 7 15 -20
55 -61 l73 -74 22 23 c12 13 17 21 11 18 -6 -4 -20 3 -30 14 -17 19 -17 20 2
13 19 -7 18 -7 -1 17 l-20 24 20 -15 c11 -8 26 -21 33 -29 11 -13 12 -13 12 1
0 8 10 23 23 32 12 9 18 15 12 12 -5 -2 -19 8 -29 22 -11 14 -14 22 -7 17 10
-6 11 -3 2 13 -6 12 -17 25 -24 29 -21 13 -55 67 -50 80 3 7 -3 23 -12 35 -15
20 -17 20 -11 3 5 -14 -1 -11 -18 10 -14 17 -25 25 -26 18 0 -6 5 -15 10 -18
6 -3 10 -11 10 -18 0 -6 -16 4 -35 23 -19 19 -35 29 -35 22z m140 -143 c17
-30 6 -34 -14 -4 -9 14 -12 25 -7 25 6 0 15 -9 21 -21z m60 -93 c0 -2 -7 -7
-16 -10 -8 -3 -12 -2 -9 4 6 10 25 14 25 6z"/>
<path d="M2810 2290 c-9 -6 -10 -10 -3 -10 6 0 15 5 18 10 8 12 4 12 -15 0z"/>
<path d="M2673 2253 c1 -13 4 -23 7 -23 3 0 11 10 19 23 13 20 13 21 -1 9 -13
-10 -17 -10 -21 0 -3 7 -4 3 -4 -9z"/>
<path d="M2875 2249 c-3 -4 2 -6 10 -5 21 3 28 13 10 13 -9 0 -18 -4 -20 -8z"/>
<path d="M2777 2189 c-15 -11 -24 -25 -21 -30 7 -12 -15 -41 -26 -34 -4 2 -15
-4 -24 -14 -11 -13 -14 -21 -7 -26 11 -6 13 -5 15 18 0 6 6 12 13 12 6 0 14 3
18 7 4 4 13 4 21 1 12 -5 12 -9 -3 -26 -12 -14 -6 -11 20 7 20 16 37 31 37 33
0 3 -7 0 -15 -7 -29 -24 -25 -4 7 36 28 34 29 36 5 15 -31 -28 -49 -21 -22 9
23 25 17 25 -18 -1z"/>
<path d="M2675 2190 c-3 -5 -2 -10 4 -10 5 0 13 5 16 10 3 6 2 10 -4 10 -5 0
-13 -4 -16 -10z"/>
<path d="M2241 2131 c9 -14 22 -27 29 -29 21 -7 6 20 -21 37 l-24 16 16 -24z"/>
<path d="M2185 2130 c3 -5 11 -10 16 -10 6 0 7 5 4 10 -3 6 -11 10 -16 10 -6
0 -7 -4 -4 -10z"/>
<path d="M2675 2130 c-3 -5 -1 -10 4 -10 6 0 11 5 11 10 0 6 -2 10 -4 10 -3 0
-8 -4 -11 -10z"/>
<path d="M2626 2123 c-4 -5 -13 -8 -19 -8 -7 0 -11 -8 -11 -18 1 -9 -2 -14 -7
-11 -5 3 -9 -2 -9 -11 0 -9 -4 -14 -9 -10 -5 3 -13 0 -17 -6 -4 -8 -3 -9 4 -5
7 4 12 4 12 0 0 -15 -54 -100 -87 -137 l-34 -38 18 -30 c21 -35 43 -57 43 -41
0 5 -7 15 -15 22 -22 18 -19 28 16 57 24 21 29 31 24 52 -6 25 -6 25 14 7 13
-12 27 -16 43 -11 18 5 20 4 8 -4 -13 -10 -13 -11 0 -11 8 0 20 11 26 24 9 20
9 23 -3 19 -11 -4 -14 0 -11 18 2 14 18 34 41 48 20 13 37 31 37 39 0 10 -8 6
-25 -12 -29 -31 -51 -36 -35 -7 14 27 13 31 -6 24 -15 -5 -15 -3 0 26 16 30
17 38 2 24z"/>
<path d="M2320 2025 c13 -14 26 -25 28 -25 3 0 -5 11 -18 25 -13 14 -26 25
-28 25 -3 0 5 -11 18 -25z"/>
<path d="M2690 2025 c-13 -14 -25 -32 -26 -41 -1 -9 0 -14 3 -11 2 3 4 8 3 12
-1 4 11 20 26 36 15 16 25 29 23 29 -3 0 -16 -11 -29 -25z"/>
<path d="M2360 1972 c0 -10 43 -52 53 -52 3 0 3 8 0 18 -11 28 -53 55 -53 34z"/>
<path d="M2680 1840 c22 -17 100 -44 100 -34 0 7 -99 54 -112 54 -7 0 -2 -9
12 -20z"/>
<path d="M2900 1791 c-68 -6 -72 -7 -37 -14 40 -8 104 0 113 14 3 5 4 8 2 7
-2 -1 -37 -4 -78 -7z"/>
<path d="M2028 1733 c7 -3 16 -2 19 1 4 3 -2 6 -13 5 -11 0 -14 -3 -6 -6z"/>
</g>
</svg>
